<?xml version="1.0" encoding="UTF-8" standalone="no"?>
<svg
   xmlns:dc="http://purl.org/dc/elements/1.1/"
   xmlns:cc="http://creativecommons.org/ns#"
   xmlns:rdf="http://www.w3.org/1999/02/22-rdf-syntax-ns#"
   xmlns:svg="http://www.w3.org/2000/svg"
   xmlns="http://www.w3.org/2000/svg"
   id="svg8"
   version="1.1"
   viewBox="0 0 210 64"
   height="64mm"
   width="210mm">
  <defs
     id="defs2" />
  <metadata
     id="metadata5">
    <rdf:RDF>
      <cc:Work
         rdf:about="">
        <dc:format>image/svg+xml</dc:format>
        <dc:type
           rdf:resource="http://purl.org/dc/dcmitype/StillImage" />
        <dc:title></dc:title>
      </cc:Work>
    </rdf:RDF>
  </metadata>
  <g
     id="layer1">
    <path
       transform="scale(0.26458333)"
       id="path26"
       d="m -117.19575,262.49276 c -6.62476,-13.31154 -15.75109,-24.64882 -38.71999,-48.10033 -12.25407,-12.51153 -24.64594,-25.61876 -27.53749,-29.12717 -13.6931,-16.61425 -22.04625,-34.67335 -26.01841,-56.25053 -2.06157,-11.19869 -1.48503,-37.297938 1.08227,-48.992403 19.81636,-90.266979 119.912337,-159.502336 264.157363,-182.714927 53.403227,-8.59389 88.262677,-10.59869 213.647267,-12.28704 140.54517,-1.89249 167.81708,-5.11279 289.4087,-34.17367 59.396,-14.19588 89.48186,-20.03512 123.74369,-24.01692 21.0791,-2.44975 66.55038,-2.4676 84.68469,-0.0333 54.24603,7.28198 96.78588,25.96827 130.20748,57.19553 57.87164,54.072186 68.47137,137.763839 25.58979,202.047543 -3.53684,5.302059 -7.49866,10.61435 -8.80398,11.805087 -2.85419,2.60361 -21.86657,11.0802 -47.32514,21.09968 -155.98332,66.73895 -322.27828,54.42125 -438.91128,39.87928 -69.55844,-8.68905 -97.22547,-11.4705 -131.82491,-13.25276 -132.94892,-6.84837 -268.212119,29.81618 -379.137617,102.76932 -8.793267,5.78313 -19.287843,12.9553 -23.321263,15.93816 l -7.33348,5.42337 z"
       style="fill:#11623c;fill-rule:evenodd;stroke-width:1.01015" />
  </g>
</svg>
