<?xml version="1.0" encoding="UTF-8" standalone="no"?>
<svg
   xmlns:dc="http://purl.org/dc/elements/1.1/"
   xmlns:cc="http://creativecommons.org/ns#"
   xmlns:rdf="http://www.w3.org/1999/02/22-rdf-syntax-ns#"
   xmlns:svg="http://www.w3.org/2000/svg"
   xmlns="http://www.w3.org/2000/svg"
   id="svg8"
   version="1.1"
   viewBox="0 0 210 64"
   height="64mm"
   width="210mm">
  <defs
     id="defs2" />
  <metadata
     id="metadata5">
    <rdf:RDF>
      <cc:Work
         rdf:about="">
        <dc:format>image/svg+xml</dc:format>
        <dc:type
           rdf:resource="http://purl.org/dc/dcmitype/StillImage" />
        <dc:title></dc:title>
      </cc:Work>
    </rdf:RDF>
  </metadata>
  <g
     id="layer1">
    <path
       transform="scale(0.26458333)"
       id="path48"
       d="m -463.24983,339.93252 v -506.78571 h 11.9046 11.90459 l 28.63112,14.5521 c 31.53331,16.02717 46.98979,24.11207 118.27398,61.866169 129.93984,68.819772 182.24583,94.7520434 247.857141,122.882651 107.525136,46.101021 204.960919,74.5052 294.999999,85.9975 33.11707,4.22696 50.77622,5.43696 86.07143,5.89756 47.41293,0.61875 65.23864,-0.64262 143.21429,-10.13405 57.13092,-6.95415 79.97642,-9.07872 111.07142,-10.32934 117.64472,-4.73157 235.06229,16.07285 339.28572,60.11572 104.58154,44.19418 197.44794,113.52744 266.74794,199.15169 76.3806,94.37281 122.0975,205.6625 133.2138,324.28571 4.7795,51.0035 1.9692,109.20729 -7.51,155.53572 l -0.7673,3.75 H 429.19953 -463.24983 Z"
       style="fill:#0e864e;fill-rule:evenodd;stroke-width:0.714286" />
  </g>
</svg>
